<svg width="132" height="132" viewBox="0 0 132 132" fill="none" xmlns="http://www.w3.org/2000/svg">
<path d="M121.037 70.75C120.229 80.1924 117.044 88.9438 112.078 96.4253C104.752 94.0255 96.9132 92.2095 88.6861 90.9995C89.7541 84.4842 90.3435 77.6906 90.5567 70.75H121.037ZM86.8305 100.361C93.3169 101.352 99.5552 102.761 105.495 104.573C98.8323 111.374 90.4235 116.465 80.9978 119.123C83.3419 113.241 85.2905 106.951 86.8305 100.361ZM77.1488 99.1292C75.1771 106.986 72.5735 114.394 69.3951 121.087C68.2499 121.17 67.1354 121.25 66 121.25C64.8642 121.25 63.7527 121.17 62.6049 121.087C59.4264 114.394 56.823 106.986 54.8549 99.1292C58.5282 98.8281 62.243 98.6541 66 98.6541C69.7571 98.6541 73.4721 98.8281 77.1488 99.1292ZM45.1696 100.361C46.7095 106.951 48.6581 113.241 51.0022 119.123C41.5769 116.465 33.1713 111.374 26.5051 104.573C32.445 102.76 38.6833 101.352 45.1696 100.361ZM43.3139 90.9995C35.0868 92.2095 27.2481 94.0255 19.9216 96.4253C14.9564 88.9438 11.7711 80.1924 10.963 70.75H41.4433C41.6565 77.6906 42.2459 84.4842 43.3139 90.9995ZM19.9216 35.5747C27.2478 37.9746 35.0865 39.7941 43.3139 41.0008C42.2459 47.516 41.6565 54.3095 41.4433 61.25H10.963C11.7711 51.8076 14.9564 43.0562 19.9216 35.5747ZM45.1695 31.6394C38.6835 30.6512 32.4452 29.24 26.5051 27.4275C33.1712 20.6262 41.5769 15.5348 51.0022 12.8774C48.6581 18.7588 46.7095 25.0488 45.1695 31.6394ZM54.855 32.8708C56.823 25.0178 59.4262 17.6068 62.6043 10.9139C62.6669 10.9095 62.7294 10.9051 62.7917 10.9007C63.8757 10.8242 64.9258 10.75 66 10.75C67.0786 10.75 68.1357 10.8248 69.2228 10.9016C69.2803 10.9057 69.3379 10.9098 69.3956 10.9139C72.5737 17.6067 75.1771 25.0176 77.1487 32.8708C73.472 33.1719 69.7571 33.3459 66 33.3459C62.243 33.3459 58.5282 33.1719 54.855 32.8708ZM50.9626 70.75H81.0409C80.812 77.2606 80.2142 83.6589 79.1375 89.8186C74.8352 89.4604 70.4604 89.25 66 89.25C61.5397 89.25 57.1649 89.4604 52.8661 89.8186C51.7859 83.6589 51.1881 77.2606 50.9626 70.75ZM81.0409 61.25H50.9626C51.1881 54.7394 51.7859 48.3411 52.8661 42.1814C57.1649 42.5396 61.5397 42.75 66 42.75C70.4603 42.75 74.8351 42.5396 79.1339 42.1814C80.2141 48.341 80.812 54.7393 81.0409 61.25ZM86.8305 31.6394C85.2905 25.0488 83.3419 18.7588 80.9978 12.8774C90.4235 15.5348 98.8323 20.6263 105.495 27.4274C99.555 29.24 93.3166 30.6512 86.8305 31.6394ZM112.078 35.5747C117.044 43.0562 120.229 51.8076 121.037 61.25H90.5567C90.3435 54.3095 89.7541 47.516 88.6861 41.0008C96.9135 39.7941 104.752 37.9746 112.078 35.5747ZM66 1.25C30.2418 1.25 1.25 30.2378 1.25 66C1.25 101.762 30.2418 130.75 66 130.75C101.758 130.75 130.75 101.762 130.75 66C130.75 30.2378 101.758 1.25 66 1.25Z" fill="white" stroke="white" stroke-width="1.5"/>
</svg>
