<svg width="18" height="19" viewBox="0 0 18 19" fill="none" xmlns="http://www.w3.org/2000/svg">
<path fill-rule="evenodd" clip-rule="evenodd" d="M9 0C13.9707 0 18 4.22457 18 9.4368C18 13.6053 15.4242 17.1415 11.8503 18.3905C11.394 18.4834 11.232 18.1887 11.232 17.9375C11.232 17.6264 11.2428 16.6103 11.2428 15.3475C11.2428 14.4676 10.9548 13.8933 10.6317 13.6006C12.636 13.3668 14.742 12.5688 14.742 8.94424C14.742 7.91339 14.3928 7.07219 13.815 6.41134C13.9086 6.17296 14.2173 5.2131 13.7268 3.9135C13.7268 3.9135 12.9726 3.66064 11.2545 4.88109C10.5354 4.67216 9.765 4.56703 9 4.56335C8.235 4.56703 7.4655 4.67216 6.7473 4.88109C5.0274 3.66064 4.2714 3.9135 4.2714 3.9135C3.7827 5.2131 4.0914 6.17296 4.1841 6.41134C3.609 7.07219 3.2571 7.91339 3.2571 8.94424C3.2571 12.5596 5.3586 13.3699 7.3575 13.6083C7.1001 13.8439 6.867 14.2595 6.786 14.8698C6.273 15.1109 4.9698 15.5283 4.167 14.086C4.167 14.086 3.6909 13.1793 2.7873 13.113C2.7873 13.113 1.9098 13.1011 2.7261 13.6865C2.7261 13.6865 3.3156 13.9764 3.7251 15.0671C3.7251 15.0671 4.2534 16.7514 6.7572 16.1807C6.7617 16.9695 6.7698 17.7129 6.7698 17.9375C6.7698 18.1869 6.6042 18.4788 6.1551 18.3914C2.5785 17.1442 0 13.6062 0 9.4368C0 4.22457 4.0302 0 9 0Z" fill="white"/>
</svg>
