<svg width="18" height="19" viewBox="0 0 18 19" fill="none" xmlns="http://www.w3.org/2000/svg">
<path fill-rule="evenodd" clip-rule="evenodd" d="M11.6838 16.1945C12.0924 15.5508 12.5019 14.7231 12.7962 13.6609C13.4757 13.9276 13.9419 14.2458 14.2281 14.4969C13.4949 15.241 12.6167 15.8191 11.6505 16.1936H11.6838V16.1945ZM3.7638 14.4886C4.0662 14.2375 4.5243 13.9276 5.2038 13.6517C5.5062 14.7222 5.8995 15.5498 6.3162 16.1936C5.3643 15.811 4.50063 15.2304 3.78 14.4886H3.7638ZM13.3362 8.36025C13.311 7.61536 13.2372 6.87139 13.1157 6.13662C14.0157 5.80187 14.67 5.40092 15.1281 5.03307C15.7669 6.03223 16.1625 7.17304 16.2819 8.36025H13.3362ZM5.2605 4.49785C4.78425 4.31856 4.33544 4.07084 3.9276 3.76216C4.61737 3.08812 5.42856 2.5572 6.3162 2.19881C5.9319 2.78369 5.5557 3.53593 5.2524 4.49785H5.2614H5.2605ZM11.6838 2.19881C12.572 2.55605 13.3834 3.08711 14.0724 3.76216C13.6641 4.07007 13.2154 4.31773 12.7395 4.49785C12.4956 3.68297 12.1372 2.90855 11.6757 2.19881H11.6838ZM11.52 6.54585C11.601 7.09762 11.6838 7.69169 11.7 8.36025H6.3C6.3243 7.69169 6.381 7.08934 6.4638 6.54585C8.1333 6.853 9.8424 6.853 11.5119 6.54585H11.52ZM9 5.09929C8.181 5.09929 7.461 5.03307 6.849 4.93283C7.5024 2.87565 8.5176 2.04799 9 1.75555C9.4662 2.04799 10.4895 2.88392 11.1438 4.93283C10.4346 5.04631 9.71779 5.10197 9 5.09929ZM2.8638 5.03307C3.47559 5.50835 4.15766 5.88088 4.8843 6.13662C4.76284 6.87204 4.68918 7.61488 4.6638 8.36025H1.6848C1.81402 7.17006 2.22114 6.02899 2.8719 5.03307H2.8638ZM1.6938 10.0321H4.6638C4.6962 10.7513 4.7448 11.4115 4.8438 12.0139C4.08999 12.2785 3.38663 12.6742 2.7648 13.1837C2.17632 12.23 1.80706 11.1525 1.6848 10.0321H1.6938ZM9 11.3702C8.019 11.3702 7.1757 11.4529 6.4395 11.5872C6.36757 11.0719 6.32101 10.5532 6.3 10.033H11.7C11.6757 10.5922 11.6343 11.1182 11.5695 11.5872C10.7217 11.4306 9.86149 11.3552 9 11.3619V11.3702ZM9 16.6368C8.5095 16.3361 7.4295 15.4413 6.7743 13.2094C7.50995 13.0869 8.25473 13.0309 9 13.042C9.8595 13.042 10.5957 13.1 11.2338 13.2094C10.5795 15.4661 9.4995 16.3361 9.0081 16.6368H9ZM15.2343 13.1754C14.6132 12.6653 13.91 12.2695 13.1562 12.0056C13.2548 11.3521 13.3149 10.693 13.3362 10.0321H16.3152C16.1917 11.1497 15.8216 12.2242 15.2343 13.1754ZM9 0C4.0293 0 0 4.11713 0 9.19619C0 14.2752 4.0293 18.3924 9 18.3924C13.9707 18.3924 18 14.2752 18 9.19619C18 4.11713 13.9707 0 9 0Z" fill="white"/>
</svg>
