<svg width="18" height="20" viewBox="0 0 18 20" fill="none" xmlns="http://www.w3.org/2000/svg">
<path d="M4.5 6.50593C5.17781 6.50593 5.72727 5.94448 5.72727 5.2519C5.72727 4.55932 5.17781 3.99788 4.5 3.99788C3.82219 3.99788 3.27273 4.55932 3.27273 5.2519C3.27273 5.94448 3.82219 6.50593 4.5 6.50593Z" fill="white"/>
<path d="M3.27273 8.17796C3.27273 7.71625 3.63904 7.34194 4.09091 7.34194H4.90909C5.36096 7.34194 5.72727 7.71624 5.72727 8.17796V14.8661C5.72727 15.3278 5.36096 15.7021 4.90909 15.7021H4.09091C3.63904 15.7021 3.27273 15.3278 3.27273 14.8661V8.17796Z" fill="white"/>
<path d="M8.18182 15.7021H9C9.45188 15.7021 9.81818 15.3278 9.81818 14.8661V11.104C9.81818 9.84999 12.2727 9.01398 12.2727 10.686V14.8664C12.2727 15.3282 12.639 15.7021 13.0909 15.7021H13.9091C14.361 15.7021 14.7273 15.3278 14.7273 14.8661V9.84999C14.7273 8.17796 13.5 7.34194 11.8636 7.34194C10.2273 7.34194 9.81818 8.59597 9.81818 8.59597V8.17796C9.81818 7.71624 9.45188 7.34194 9 7.34194H8.18182C7.72994 7.34194 7.36364 7.71625 7.36364 8.17796V14.8661C7.36364 15.3278 7.72994 15.7021 8.18182 15.7021Z" fill="white"/>
<path fill-rule="evenodd" clip-rule="evenodd" d="M15.5455 0.653809C16.9011 0.653809 18 1.7767 18 3.16186V16.5381C18 17.9233 16.9011 19.0462 15.5455 19.0462H2.45455C1.09894 19.0462 0 17.9233 0 16.5381V3.16186C0 1.7767 1.09894 0.653809 2.45455 0.653809H15.5455ZM15.5455 2.32584C15.9973 2.32584 16.3636 2.70014 16.3636 3.16186V16.5381C16.3636 16.9999 15.9973 17.3741 15.5455 17.3741H2.45455C2.00268 17.3741 1.63636 16.9999 1.63636 16.5381V3.16186C1.63636 2.70014 2.00268 2.32584 2.45455 2.32584H15.5455Z" fill="white"/>
</svg>
